<?xml version="1.0" standalone="no"?>
<!DOCTYPE svg PUBLIC "-//W3C//DTD SVG 20010904//EN"
 "http://www.w3.org/TR/2001/REC-SVG-20010904/DTD/svg10.dtd">
<svg version="1.0" xmlns="http://www.w3.org/2000/svg"
 width="41.000000pt" height="41.000000pt" viewBox="0 0 41.000000 41.000000"
 preserveAspectRatio="xMidYMid meet">
<metadata>
Created by potrace 1.15, written by Peter Selinger 2001-2017
</metadata>
<g transform="translate(0.000000,41.000000) scale(0.100000,-0.100000)"
fill="#000000" stroke="none">
<path d="M158 393 c-3 -12 -18 -23 -34 -27 -108 -27 -161 -176 -100 -280 52
-88 177 -115 268 -57 25 16 49 39 53 50 3 12 15 21 25 21 28 0 40 30 40 98 0
116 -77 202 -189 210 -51 4 -59 2 -63 -15z m130 -46 c62 -37 103 -126 83 -180
l-10 -26 -80 27 -81 26 0 93 0 93 28 -6 c15 -4 42 -16 60 -27z m-48 -205 c41
-14 77 -27 80 -29 10 -9 -61 -62 -99 -74 -34 -10 -47 -9 -86 5 -98 38 -133
150 -71 230 16 21 43 44 60 51 l31 13 5 -86 5 -85 75 -25z"/>
</g>
</svg>
